<svg width="24" height="24" viewBox="0 0 24 24" fill="none" xmlns="http://www.w3.org/2000/svg">
<rect width="24" height="24" rx="2.5" fill="#BBD5DF"/>
<path d="M17 9.4752C17.3282 9.80341 17.7734 9.98779 18.2375 9.98779C18.7017 9.98779 19.1468 9.80341 19.475 9.4752C19.8032 9.147 19.9876 8.70186 19.9876 8.2377C19.9876 7.77355 19.8032 7.32841 19.475 7.0002L17 4.5252C16.8375 4.36269 16.6446 4.23378 16.4323 4.14583C16.2199 4.05788 15.9924 4.01261 15.7625 4.01261C15.2984 4.01261 14.8532 4.197 14.525 4.5252C14.1968 4.85341 14.0125 5.29855 14.0125 5.7627C14.0125 6.22686 14.1968 6.672 14.525 7.0002L17 9.4752ZM18.061 6.2932L19.121 7.3532C19.3538 7.58794 19.4841 7.90532 19.4834 8.23589C19.4827 8.56647 19.3511 8.88331 19.1174 9.11709C18.8837 9.35088 18.5669 9.48256 18.2363 9.48333C17.9058 9.4841 17.5883 9.3539 17.3535 9.1212L16.293 8.0612L18.061 6.2932ZM16.927 5.5732C16.9503 5.59645 16.9687 5.62404 16.9812 5.65439C16.9938 5.68475 17.0002 5.71728 17.0002 5.75013C17.0002 5.78298 16.9937 5.8155 16.9811 5.84584C16.9685 5.87618 16.95 5.90374 16.9268 5.92695C16.9035 5.95016 16.876 5.96857 16.8456 5.98112C16.8152 5.99367 16.7827 6.00012 16.7499 6.00009C16.717 6.00007 16.6845 5.99358 16.6542 5.98098C16.6238 5.96839 16.5963 5.94995 16.573 5.9267L15.823 5.1767C15.7998 5.15346 15.7814 5.12587 15.7689 5.09551C15.7563 5.06516 15.7499 5.03262 15.7499 4.99978C15.7499 4.93344 15.7763 4.86983 15.8233 4.82295C15.8702 4.77608 15.9339 4.74977 16.0002 4.74981C16.0666 4.74986 16.1302 4.77626 16.177 4.8232L16.927 5.5732Z" fill="#1E1E1E"/>
<g clip-path="url(#clip0_82_17)">
<path d="M8.99996 16.3333V17C8.99996 17.5304 9.21067 18.0391 9.58575 18.4142C9.96082 18.7893 10.4695 19 11 19C11.5304 19 12.0391 18.7893 12.4142 18.4142C12.7892 18.0391 13 17.5304 13 17V16.3333M9.66663 8.33333C9.66663 7.97971 9.8071 7.64057 10.0572 7.39052C10.3072 7.14048 10.6463 7 11 7C11.3536 7 11.6927 7.14048 11.9428 7.39052C12.1928 7.64057 12.3333 7.97971 12.3333 8.33333C13.0989 8.69535 13.7516 9.25888 14.2213 9.96353C14.6911 10.6682 14.9603 11.4874 15 12.3333V14.3333C15.0501 14.7478 15.1969 15.1447 15.4285 15.4921C15.6601 15.8395 15.97 16.1276 16.3333 16.3333H5.66663C6.02992 16.1276 6.33983 15.8395 6.57142 15.4921C6.803 15.1447 6.94979 14.7478 6.99996 14.3333V12.3333C7.03967 11.4874 7.30883 10.6682 7.77859 9.96353C8.24836 9.25888 8.90102 8.69535 9.66663 8.33333Z" stroke="#1E1E1E" stroke-width="1.5" stroke-linecap="round" stroke-linejoin="round"/>
</g>
<defs>
<clipPath id="clip0_82_17">
<rect width="12.6667" height="16" fill="white" transform="translate(4.66663 5)"/>
</clipPath>
</defs>
</svg>
